<?xml version="1.0" standalone="no"?><!DOCTYPE svg PUBLIC "-//W3C//DTD SVG 1.1//EN" "http://www.w3.org/Graphics/SVG/1.1/DTD/svg11.dtd"><svg class="icon" width="128px" height="128.00px" viewBox="0 0 1024 1024" version="1.1" xmlns="http://www.w3.org/2000/svg"><path fill="#2c2c2c" d="M928 256h-64v576c0 70.692-57.308 128-128 128H288c-70.692 0-128-57.308-128-128V256H96c-17.673 0-32-14.327-32-32 0-17.673 14.327-32 32-32h832c17.673 0 32 14.327 32 32 0 17.673-14.327 32-32 32z m-496 96c0-17.673-14.327-32-32-32-17.673 0-32 14.327-32 32v448c0 17.673 14.327 32 32 32 17.673 0 32-14.327 32-32V352z m224 0c0-17.673-14.327-32-32-32-17.673 0-32 14.327-32 32v448c0 17.673 14.327 32 32 32 17.673 0 32-14.327 32-32V352z m16-224H352c-17.673 0-32-14.327-32-32 0-17.673 14.327-32 32-32h320c17.673 0 32 14.327 32 32 0 17.673-14.327 32-32 32z" /></svg>